<svg fill="none" xmlns="http://www.w3.org/2000/svg" viewBox="218.68 325.52 1449.47 450.62">
<path d="M526.183 695.873L515.822 674.78L518.515 673.457C528.089 668.755 534.918 662.244 539.002 653.925C543.532 645.757 544.43 634.732 541.696 620.849C539.408 607.118 533.121 589.781 522.834 568.837L444.799 409.967C435.247 390.52 424.086 377.248 411.316 370.151C398.845 362.907 383.484 363.767 365.233 372.732C351.77 379.345 342.689 388.076 337.991 398.925C333.445 409.328 332.096 420.946 333.943 433.78C336.089 446.467 340.322 459.242 346.641 472.108L393.153 566.801C397.415 575.478 402.293 581.252 407.789 584.123C413.436 586.548 419.32 587.186 425.44 586.037C431.713 584.441 438.14 582.027 444.722 578.794L446.069 578.133L455.327 596.982L334.604 656.279L325.345 637.43L328.936 635.667C335.817 632.286 341.583 628.526 346.234 624.385C351.184 620.097 354.202 614.9 355.289 608.796C356.228 602.392 354.42 594.553 349.865 585.278L281.089 445.257C276.68 436.282 271.652 430.581 266.004 428.156C260.509 425.285 254.625 424.647 248.353 426.242C242.232 427.391 235.881 429.583 229.299 432.816L227.953 433.477L218.694 414.628L291.398 378.917L315.087 412.403L317.331 411.301C318.03 396.846 320.423 385.086 324.513 376.021C328.754 366.51 334.549 358.65 341.898 352.441C349.246 346.232 357.708 340.776 367.282 336.074C390.918 324.464 412.772 322.457 432.843 330.053C453.066 337.203 470.747 356.186 485.883 387.002L564.799 547.668C577.878 574.296 584.575 597.002 584.889 615.788C585.203 634.574 580.547 650.045 570.92 662.2C561.739 674.509 549.071 684.631 532.915 692.566L526.183 695.873Z" fill="#1646C2" fill-opacity="0.14"/>
<path d="M698.146 767.112C671.148 756.342 652.861 740.289 643.285 718.956C633.956 697.72 635.171 672.366 646.93 642.891L654.489 623.944L776.349 672.56C782.474 655.767 785.631 641.379 785.818 629.396C786.104 617.164 783.644 607.139 778.437 599.32C773.23 591.5 765.426 585.516 755.023 581.365C746.602 578.006 738.38 576.305 730.358 576.263C722.435 575.973 715.058 577.193 708.227 579.922C701.742 582.503 695.877 586.049 690.632 590.56C688.203 587.294 686.714 583.829 686.166 580.165C685.717 576.253 686.283 572.316 687.864 568.353C690.729 561.17 695.949 555.644 703.522 551.775C711.094 547.906 721.071 546.287 733.451 546.92C745.832 547.552 760.319 551.179 776.914 557.799C808.617 570.448 828.961 588.9 837.946 613.156C847.179 637.511 845.323 665.911 832.378 698.358C818.446 733.281 799.872 756.448 776.658 767.858C753.791 779.12 727.62 778.871 698.146 767.112ZM707.037 742.667C713.972 745.434 720.806 745.576 727.538 743.094C734.617 740.463 741.421 735.282 747.951 727.551C754.579 719.573 760.635 709.069 766.12 696.041L701.846 670.399C696.807 683.031 693.45 694.324 691.775 704.279C690.199 713.986 690.529 722.156 692.763 728.79C695.344 735.274 700.102 739.9 707.037 742.667Z" fill="#DC0606" fill-opacity="0.22"/>
<path d="M1258.34 653.497C1241.84 647.367 1228.03 638.608 1216.9 627.218C1206.28 615.593 1199.66 601.825 1197.04 585.915C1194.55 569.631 1197.07 551.365 1204.6 531.117C1215.74 501.121 1234.46 482.899 1260.75 476.453C1287.42 470.146 1322.59 474.253 1366.27 488.775L1413.58 504.432L1426.11 470.687C1431.13 457.188 1434.39 444.959 1435.91 434C1437.56 422.665 1435.75 412.605 1430.48 403.819C1425.21 395.034 1414.89 387.785 1399.51 382.073C1385.26 376.779 1373.42 375.363 1363.97 377.826C1354.52 380.289 1346.74 385.72 1340.63 394.119C1335.04 402.282 1330.01 412.362 1325.55 424.361C1309.8 418.51 1298.78 411.427 1292.48 403.112C1286.7 394.562 1286.17 383.913 1290.91 371.165C1295.79 358.041 1304.19 349.214 1316.11 344.684C1328.41 340.293 1342.88 339.266 1359.5 341.604C1376.27 343.566 1393.84 347.961 1412.21 354.787C1426.46 360.081 1438.53 366.061 1448.43 372.726C1458.84 379.155 1467.27 386.339 1473.71 394.278C1480.52 402.357 1485.02 411.496 1487.2 421.696C1501.88 414.348 1517.58 410.579 1534.29 410.388C1551.14 409.822 1568.75 412.952 1587.13 419.779C1611.5 428.834 1630.43 441.628 1643.91 458.161C1657.78 474.832 1665.7 494.846 1667.69 518.202C1669.68 541.557 1665.17 568.045 1654.17 597.667L1644.55 623.539L1457.26 553.95C1447.84 581.6 1442.93 605.164 1442.52 624.64C1442.49 644.257 1447.12 660.488 1456.43 673.335C1466.25 685.945 1481.1 695.943 1500.97 703.327C1511.85 707.367 1522.79 709.511 1533.79 709.758C1545.31 709.77 1556.12 708.24 1566.22 705.166C1576.32 702.093 1585.13 697.899 1592.66 692.586C1594.86 694.686 1596.46 697.842 1597.46 702.052C1598.46 706.263 1598.05 710.805 1596.24 715.679C1593.45 723.179 1586.89 729.917 1576.56 735.893C1566.24 741.87 1552.58 745.329 1535.58 746.27C1519.11 746.975 1500 743.288 1478.25 735.207C1450.88 725.037 1429.65 710.962 1414.57 692.984C1399.62 674.63 1390.73 653.191 1387.9 628.668C1379.22 638.245 1368.19 646.096 1354.82 652.223C1341.83 658.489 1327.09 661.974 1310.61 662.679C1294.51 663.524 1277.08 660.463 1258.34 653.497ZM1284.23 623.433C1299.6 629.145 1313.91 630.834 1327.15 628.5C1340.77 626.305 1352.74 620.511 1363.06 611.116C1373.89 601.486 1382.23 588.797 1388.08 573.049L1405.01 527.492L1368.39 515.805C1346.73 508.614 1328.68 505.532 1314.21 506.558C1300.13 507.725 1288.58 512.394 1279.56 520.568C1270.69 528.366 1263.54 539.577 1258.11 554.2C1253.79 565.824 1251.85 576.199 1252.3 585.327C1252.89 594.08 1255.79 601.773 1261.01 608.405C1266.37 614.662 1274.11 619.672 1284.23 623.433ZM1599.03 572.061C1606.42 552.188 1610.83 533.987 1612.28 517.456C1614.1 501.065 1612.05 487.073 1606.12 475.48C1600.18 463.887 1589.72 455.305 1574.72 449.732C1560.84 444.577 1547.57 444.126 1534.9 448.378C1522.74 452.394 1511.13 460.669 1500.07 473.202C1489.39 485.875 1479.25 502.806 1469.67 523.996L1599.03 572.061Z" fill="#12EF35" fill-opacity="0.24"/>
<path d="M897.538 583.304C884.883 586.283 873.414 586.003 863.13 582.466C852.846 578.928 843.97 571.772 836.502 560.996C829.183 549.98 823.324 535.128 818.924 516.438C814.479 497.555 813.074 481.551 814.71 468.427C816.541 455.257 821.15 444.72 828.535 436.818C836.116 428.869 846.136 423.428 858.595 420.495C869.497 417.929 878.979 418.06 887.042 420.887C895.058 423.521 901.913 427.763 907.605 433.614L909.649 433.133C908.389 429.526 907.06 425.626 905.663 421.435C904.265 417.244 902.988 413.127 901.831 409.085C900.628 404.848 899.66 401.172 898.926 398.057L895.146 381.996C893.862 376.545 891.852 372.806 889.115 370.779C886.378 368.752 883.068 367.785 879.186 367.877C875.498 367.923 871.513 368.451 867.23 369.459L864.894 370.009L861.251 354.532L931.627 337.965L975.416 523.98C976.791 529.821 978.893 533.949 981.722 536.365C984.745 538.735 988.221 539.972 992.149 540.074C996.077 540.177 1000.18 539.724 1004.47 538.716L1005.63 538.441L1009.28 553.918L952.625 567.254L939.087 546.401L936.459 547.02C934.009 555.815 929.733 563.397 923.629 569.765C917.721 576.087 909.024 580.6 897.538 583.304ZM904.939 558.447C916.425 555.743 923.163 549.02 925.155 538.278C927.101 527.341 925.713 511.846 920.993 491.794C917.968 478.946 914.428 468.273 910.374 459.776C906.513 451.233 901.915 445.227 896.578 441.758C891.195 438.094 884.61 437.178 876.823 439.011C870.398 440.524 865.692 444.097 862.704 449.732C859.91 455.321 858.594 462.822 858.755 472.235C859.065 481.408 860.756 492.517 863.826 505.56C866.942 518.798 870.408 529.591 874.222 537.939C878.231 546.242 882.71 552.173 887.657 555.734C892.754 559.055 898.514 559.959 904.939 558.447ZM1100.36 606.444C1085.18 610.019 1072.5 611.154 1062.33 609.849C1052.21 608.74 1044.41 606.158 1038.93 602.105C1033.65 598.005 1030.39 593.328 1029.16 588.071C1027.55 581.258 1028.41 575.302 1031.73 570.206C1035.25 565.064 1042.26 561.255 1052.77 558.78C1054.29 565.205 1057.11 571.114 1061.26 576.507C1065.6 581.855 1070.86 585.857 1077.03 588.513C1083.44 591.318 1090.45 591.827 1098.04 590.04C1103.69 588.71 1108.7 585.578 1113.09 580.642C1117.47 575.705 1120.48 568.834 1122.1 560.027C1123.73 551.22 1123.05 540.49 1120.07 527.836C1117.37 516.35 1113.32 507.441 1107.93 501.108C1102.68 494.535 1096.24 490.299 1088.6 488.399C1080.96 486.498 1072.37 486.671 1062.83 488.917L1052.03 491.46L1049.21 479.487L1096.06 400.962L1038.83 414.436C1032.01 416.04 1027.66 418.502 1025.77 421.823C1024.03 424.904 1023.18 430.035 1023.23 437.215L1023.25 446.457L1005.44 450.65L994.161 392.281L1123.23 361.896L1128.46 384.09L1079.23 465.639C1089.3 463.886 1098.84 463.386 1107.85 464.141C1117.06 464.85 1125.4 467.1 1132.86 470.89C1140.48 474.439 1147 479.889 1152.43 487.241C1157.81 494.398 1161.84 503.622 1164.49 514.913C1167.47 527.567 1167.7 539.019 1165.18 549.269C1162.86 559.473 1158.49 568.412 1152.08 576.085C1145.86 583.713 1138.21 590.035 1129.12 595.052C1120.26 600.218 1110.68 604.015 1100.36 606.444Z" fill="#EAFC1F" fill-opacity="0.4"/>
</svg>