<svg width="1440" height="436" viewBox="0 0 1440 436" fill="none" xmlns="http://www.w3.org/2000/svg">
<path d="M276.288 337.683L265.928 316.59L268.62 315.267C278.194 310.565 285.023 304.054 289.107 295.734C293.637 287.567 294.535 276.542 291.801 262.659C289.513 248.928 283.226 231.591 272.939 210.647L194.905 51.7773C185.352 32.33 174.191 19.0578 161.421 11.9609C148.95 4.71702 133.589 5.57726 115.339 14.5416C101.875 21.1547 92.7941 29.8858 88.096 40.7351C83.5501 51.1381 82.2007 62.7564 84.0478 75.5899C86.1942 88.2765 90.4269 101.052 96.746 113.918L143.258 208.611C149.724 221.776 157.429 228.389 166.373 228.453C175.469 228.07 184.954 225.454 194.827 220.604L196.174 219.943L205.432 238.792L84.7089 298.089L75.4506 279.24L79.0409 277.476C89.2134 272.48 97.0081 266.423 102.425 259.306C107.695 251.889 106.877 241.15 99.9699 227.088L31.1941 87.0672C24.728 73.9029 16.8733 67.3625 7.63005 67.4461C-1.314 67.3828 -10.7227 69.776 -20.5959 74.6255L-21.9423 75.2869L-31.2006 56.4379L41.5026 20.7273L65.1921 54.2133L67.436 53.1111C68.4814 31.8008 73.4395 15.8103 82.3104 5.13974C91.3336 -5.97701 103.026 -15.0624 117.387 -22.1163C141.023 -33.7259 162.877 -35.7328 182.948 -28.1369C203.172 -20.9873 220.852 -2.00412 235.988 28.8125L314.904 189.478C327.983 216.106 334.68 238.812 334.994 257.598C335.308 276.384 330.652 291.854 321.025 304.01C311.845 316.319 299.176 326.441 283.02 334.376L276.288 337.683Z" fill="#1646C2" fill-opacity="0.14"/>
<path d="M479.146 341.112C452.148 330.342 433.861 314.289 424.285 292.956C414.956 271.72 416.171 246.366 427.93 216.891L435.489 197.944L557.349 246.56C566.586 221.247 569.094 201.289 564.872 186.685C560.996 171.932 551.38 161.492 536.023 155.365C523.144 150.227 511.109 148.728 499.92 150.867C488.731 153.007 479.301 157.571 471.632 164.56C466.427 158.177 465.504 150.775 468.864 142.353C473.113 131.703 482.763 124.786 497.814 121.603C512.865 118.421 532.898 121.819 557.914 131.799C589.617 144.448 609.962 162.9 618.946 187.156C628.179 211.511 626.323 239.911 613.378 272.358C599.446 307.281 580.872 330.448 557.658 341.858C534.791 353.12 508.62 352.871 479.146 341.112ZM488.037 316.667C498.44 320.817 508.812 318.926 519.154 310.994C529.497 303.061 538.819 289.41 547.12 270.041L482.846 244.399C475.337 263.223 471.637 278.973 471.747 291.65C471.957 304.079 477.387 312.418 488.037 316.667Z" fill="#DC0606" fill-opacity="0.22"/>
<path d="M1139.9 345.349C1113.42 349.465 1090.28 345.167 1070.5 332.455C1050.71 319.743 1038.3 297.181 1033.26 264.77C1028.35 233.15 1035.79 208.11 1055.59 189.65C1075.78 171.129 1108.48 157.546 1153.69 148.9L1202.63 139.474L1197.1 103.901C1194.89 89.6716 1191.77 77.4053 1187.74 67.102C1183.64 56.4035 1177.15 48.5065 1168.27 43.411C1159.38 38.3155 1146.83 37.027 1130.63 39.5457C1115.61 41.88 1104.57 46.4282 1097.53 53.1904C1090.48 59.9525 1086.35 68.4893 1085.11 78.8007C1084.22 88.6554 1084.75 99.9068 1086.72 112.555C1070.12 115.135 1057.04 114.334 1047.48 110.152C1038.26 105.513 1032.61 96.4743 1030.52 83.0357C1028.37 69.2017 1031.39 57.3974 1039.59 47.6228C1048.18 37.7867 1060.3 29.8307 1075.95 23.7548C1091.54 17.2836 1109.02 12.543 1128.39 9.53298C1150.52 6.09292 1169.76 6.13942 1186.1 9.67249C1202.37 12.8103 1215.84 20.0276 1226.5 31.3243C1244.89 3.77367 1273.65 -13.0424 1312.78 -19.1239C1351.12 -25.0826 1383 -17.8936 1408.42 2.44305C1434.24 22.7183 1450.81 56.3736 1458.12 103.409L1462.36 130.682L1264.93 161.366C1272.41 204.326 1285 234.55 1302.7 252.04C1320.34 269.135 1344.77 275.256 1375.99 270.403C1393.38 267.7 1408.77 261.259 1422.17 251.081C1435.51 240.508 1445.04 228.907 1450.77 216.277C1453.72 217.033 1456.65 219.005 1459.58 222.194C1462.5 225.383 1464.36 229.546 1465.16 234.684C1466.39 242.59 1463.96 251.671 1457.86 261.929C1451.76 272.187 1441.53 281.874 1427.16 290.989C1413.12 299.647 1394.64 305.758 1371.72 309.321C1314.01 318.289 1270.39 301.995 1240.86 260.437C1236.11 279.391 1225.33 297.259 1208.51 314.042C1192.02 330.368 1169.15 340.803 1139.9 345.349ZM1261.14 129.166L1397.5 107.972C1392.59 76.352 1383.71 51.8236 1370.88 34.3871C1358.39 16.4939 1340.28 9.39023 1316.57 13.076C1294.83 16.4546 1279.24 28.187 1269.82 48.273C1260.72 67.9024 1257.83 94.8666 1261.14 129.166ZM1147.82 306.471C1171.93 302.724 1189.97 292.432 1201.92 275.597C1213.82 258.365 1217.8 237.102 1213.87 211.805L1206.4 163.782L1168.74 171.458C1135.39 178.26 1113.14 188.802 1102 203.082C1091.2 216.905 1087.61 235.477 1091.23 258.797C1096.94 295.556 1115.81 311.447 1147.82 306.471Z" fill="#12EF35" fill-opacity="0.24"/>
<path d="M678.538 157.304C659.459 161.795 643.248 158.831 629.906 148.411C616.517 137.796 606.523 118.472 599.924 90.4384C593.279 62.21 593.46 40.2852 600.467 24.664C607.668 8.99693 620.711 -1.05928 639.595 -5.50465C650.497 -8.07104 659.979 -7.94035 668.042 -5.11257C676.058 -2.47946 682.913 1.76277 688.605 7.61412L690.649 7.13292C688.587 1.86523 686.56 -4.12966 684.566 -10.8517C682.573 -17.5738 681.026 -23.271 679.926 -27.9433L676.146 -44.0043C674.267 -51.9861 670.762 -56.4005 665.631 -57.2474C660.455 -58.289 654.655 -58.0536 648.23 -56.5412L645.894 -55.9913L642.251 -71.4683L712.627 -88.0353L756.416 97.9801C757.791 103.82 759.893 107.949 762.722 110.365C765.745 112.735 769.221 113.971 773.149 114.074C777.077 114.177 781.183 113.724 785.466 112.716L786.634 112.441L790.277 127.918L733.625 141.254L720.087 120.401L717.459 121.02C715.009 129.815 710.733 137.397 704.629 143.765C698.721 150.087 690.024 154.6 678.538 157.304ZM685.939 132.447C697.425 129.743 704.163 123.02 706.155 112.278C708.101 101.341 706.713 85.8463 701.993 65.7944C697.456 46.5212 691.831 32.2298 685.12 22.92C678.408 13.6103 669.309 10.3074 657.823 13.0113C648.089 15.3027 642.295 22.1115 640.441 33.4377C638.782 44.718 640.243 60.0922 644.826 79.56C649.501 99.4172 655.051 113.829 661.476 122.795C668.051 131.521 676.205 134.738 685.939 132.447ZM881.361 180.444C866.176 184.019 853.499 185.154 843.329 183.849C833.205 182.74 825.406 180.158 819.932 176.105C814.652 172.005 811.394 167.328 810.156 162.071C808.552 155.258 809.41 149.302 812.731 144.206C816.246 139.064 823.26 135.255 833.773 132.78C835.285 139.205 838.114 145.114 842.261 150.507C846.601 155.855 851.858 159.857 858.031 162.513C864.445 165.318 871.447 165.827 879.04 164.039C884.686 162.71 889.701 159.578 894.087 154.642C898.472 149.705 901.478 142.834 903.103 134.027C904.728 125.22 904.052 114.49 901.073 101.836C897.04 84.704 890.093 73.0868 880.232 66.9839C870.371 60.881 858.238 59.5253 843.832 62.9166L833.027 65.4601L830.208 53.4873L877.062 -25.038L819.826 -11.5645C813.012 -9.96047 808.661 -7.49784 806.772 -4.17657C805.031 -1.09581 804.184 4.03476 804.231 11.2151L804.249 20.4569L786.436 24.6502L775.161 -33.7193L904.233 -64.1036L909.457 -41.9102L860.234 39.6387C873.656 37.3011 886.173 37.2311 897.785 39.4286C909.352 41.4315 919.253 46.3949 927.487 54.3187C935.917 62.1968 941.919 73.7283 945.493 88.9132C948.472 101.567 948.703 113.019 946.184 123.269C943.861 133.473 939.493 142.412 933.08 150.085C926.863 157.713 919.208 164.035 910.115 169.052C901.264 174.218 891.679 178.015 881.361 180.444Z" fill="#EAFC1F" fill-opacity="0.4"/>
</svg>
